<svg xmlns="http://www.w3.org/2000/svg" viewBox="0 0 784 784"><defs><style>.cls-1{fill:#b3b3b3;}.cls-2{fill:#fff;}</style></defs><title>circle-icon</title><g id="Layer_2" data-name="Layer 2"><g id="Layer_1-2" data-name="Layer 1"><g id="image"><circle class="cls-1" cx="392" cy="392" r="392"/><path class="cls-2" d="M582.75,628.59H197.55a57.53,57.53,0,0,1-57.4-57.4V186a57.53,57.53,0,0,1,57.4-57.4h385.1a57.55,57.55,0,0,1,57.5,57.4v385.2A57.53,57.53,0,0,1,582.75,628.59Zm-385.2-479.8a37.26,37.26,0,0,0-37.2,37.2v385.2a37.26,37.26,0,0,0,37.2,37.2h385.1a37.26,37.26,0,0,0,37.2-37.2V186a37.26,37.26,0,0,0-37.2-37.2Z"/><path class="cls-2" d="M265.65,348a48.25,48.25,0,1,1,48.2-48.2A48.23,48.23,0,0,1,265.65,348Zm0-86.4a38.15,38.15,0,1,0,38.1,38.2A38.18,38.18,0,0,0,265.65,261.59Z"/><path class="cls-2" d="M573.85,492.59H210.05l120.8-137.3,38.5,39.7,72.4-102.8Zm-341.5-10.1h322.7l-113.6-172.4-70.9,100.7-39.4-40.6Z"/></g></g></g></svg>