<?xml version="1.0" encoding="utf-8"?>
<!-- Generator: Adobe Illustrator 21.0.2, SVG Export Plug-In . SVG Version: 6.00 Build 0)  -->
<svg version="1.1" id="Layer_1" xmlns="http://www.w3.org/2000/svg" xmlns:xlink="http://www.w3.org/1999/xlink" x="0px" y="0px"
	 viewBox="0 0 419 521" xml:space="default">
<path d="M411,256.5c0,80.7,0,161.3,0,241.9c0,9-1.9,11-10.7,11c-98.1-0.1-196.3-0.3-294.4-0.3c-4.9,0-8.6-1.5-12-4.8
	c-26.6-26.7-53.3-53.3-79.9-79.8c-4.2-4.2-6.1-8.9-6.1-15.1C8,277.7,8,146.1,8,14.5c0-7.6,2.2-9.9,9.7-9.9
	C145.8,4.7,274,4.8,402.1,4.9c6.3,0,7.9,1.7,7.9,8.6c0,81,0,161.9,0,242.9C410.3,256.5,410.6,256.5,411,256.5z M364.5,453.1
	c8.4,0,14.6-6.3,14.5-14.3c-0.1-7.8-6.2-13.7-14.6-13.9c-2.8-0.1-5.7,0-8.5,0c-65.2,0-130.3,0-195.5,0c-9.5,0-15.7,6.1-15.4,14.9
	c0.3,7.9,6.5,13.4,15.5,13.4c34,0,68,0,102,0C296.5,453.2,330.5,453.2,364.5,453.1z M377.8,357c4.4-10.2-3.2-19.7-15.7-19.7
	c-101.3,0-202.6,0-304,0c-2.3,0-4.7-0.1-7,0.3c-6,1-9.9,4.5-11.6,10.3c-1.6,5.5,0.2,10.1,4,14.2c3.4,3.6,7.9,3.9,12.4,3.9
	c50.8,0,101.7,0,152.5,0c14.3,0,28.7,0,43,0c37,0,74,0,111,0C369.4,365.9,375,363.6,377.8,357z M377.8,281.8
	c4.5-9.8-2.8-19.8-14.3-19.8c-51.5,0-103,0-154.5,0c-51.6,0-103.3,0-154.9,0c-9,0-15.4,6.4-15.1,14.9c0.3,8.5,6.8,13.5,17.5,13.5
	c101,0,201.9,0,302.9,0c2.2,0,4.3,0,6.5-0.1C371.7,290,375.5,286.7,377.8,281.8z M370.7,101.4c2-5.4,1.3-6.5-4.6-6.5
	c-2.2,0-4.4,0.2-6.5-0.1c-3.5-0.5-5,1.2-6,4.3c-3,8.8-6.4,17.4-9.6,26.1c-3.1,8.4-6.1,16.8-9.3,25.2c-0.5,1.2-1.8,2.1-2.7,3.1
	c-1-1-2.2-1.8-3.1-2.9c-0.6-0.7-0.8-1.8-1.1-2.7c-5.3-14.3-10.4-28.7-16-42.9c-4.6-11.9-1.1-10-14.5-10.1c-6.8-0.1-7.5,1-5.2,7.3
	c8.5,23,17.1,46,25.7,69c3.9,10.4,1.7,8.8,12.9,8.9c1,0,2-0.1,3,0c5.3,0.9,8.1-1.2,9.7-6.5c2.6-8.2,6.1-16.1,9.2-24.2
	C358.6,133.4,364.7,117.4,370.7,101.4z M280.3,110.2c2.6-2.9,1.9-5.1-0.9-7.5c-7.6-6.4-16.4-9.3-26.2-9.5c-3.6,0.5-7.3,0.7-10.8,1.5
	c-24.1,5.8-35.9,31.6-30.7,54.6c6.9,30.4,39.8,42,64.7,23.3c8-6,7.9-5.9,1.7-13.6c-3-3.7-5-3.1-8.6-0.8c-4.6,2.9-9.9,6.1-15.1,6.6
	c-13.5,1.3-24.8-9.2-27-24.3c-1.6-11,2.3-20,11.6-26.3c8.8-5.9,18-5.7,26.6,0.1c8.3,5.6,7.8,5.4,13.8-2.8
	C279.6,111,279.9,110.6,280.3,110.2z M175.2,215.8c5.3,0,7.9-2.2,7.4-6.6c-3.1-27.1-16.8-46.8-41.3-58.9c-3.5-1.8-6.7-1.2-9.5,1.7
	c-4.3,4.4-8.8,8.7-13.2,12.9c-6.2,6-8,6-14,0.1c-3.9-3.8-7.8-7.7-11.7-11.6c-5.6-5.5-6.2-5.7-13.4-2c-22.3,11.5-34.7,30.3-39.3,54.5
	c-1.3,7.2,1.1,9.7,8.6,9.7c20.8,0,41.6,0,62.5,0c6.5,0,13,0,19.5,0C145.5,215.8,160.4,215.9,175.2,215.8z M151,84.3
	c-1.7-6.5-2.7-13.4-5.4-19.5c-10.7-24.1-38.9-30.6-57.9-13.6C69.2,67.7,68.3,98.6,86.1,116c8.4,8.3,18.6,12.3,30.4,10.4
	C136,123.3,149.8,105.9,151,84.3z M124.4,401.5c0.1-3.9-1.4-5.3-5.3-5.3c-25.4,0.1-50.9,0-76.4,0.1c-1.7,0-3.5,1.3-5.2,2
	c0.8,1.5,1.3,3.4,2.4,4.5c25.8,26,51.7,51.8,77.7,77.6c1.2,1.2,3.4,1.5,5.1,2.3c0.5-1.6,1.5-3.3,1.5-4.9c0.1-12.8,0.1-25.6,0.1-38.4
	C124.3,426.8,124.2,414.2,124.4,401.5z"/>
</svg>
