<?xml version="1.0" encoding="utf-8"?>
<!-- Generator: Adobe Illustrator 21.0.2, SVG Export Plug-In . SVG Version: 6.00 Build 0)  -->
<svg version="1.1" id="Layer_1" xmlns="http://www.w3.org/2000/svg" xmlns:xlink="http://www.w3.org/1999/xlink" x="0px" y="0px"
	 viewBox="0 0 67 63" style="enable-background:new 0 0 67 63;" xml:space="preserve">
<style type="text/css">
	.st0{fill:#010002;}
</style>
<g id="XMLID_1_">
	<g>
		<path class="st0" d="M63,24.5C55.2,29.8,47.4,35,39.6,40.2c7.8,6.1,15.6,12.1,23.5,18.2C63,47,63,35.8,63,24.5z M1.6,60.8
			c0-12.2,0-24.3,0-36.5c0-0.4,0.1-0.7,0.4-0.9C12.4,15.7,22.7,8,33,0.3c0.3-0.2,0.5-0.2,0.8,0c10.3,7.7,20.7,15.4,31,23.1
			c0.3,0.2,0.4,0.4,0.4,0.8c0,12.3,0,24.5,0,36.8c0,0.5-0.2,0.6-0.6,0.6c-10.4,0-20.8,0-31.2,0c-10.4,0-20.8,0-31.1,0
			C1.7,61.5,1.6,61.4,1.6,60.8z M3.9,58.4c7.8-6.1,15.6-12.1,23.5-18.2C19.5,35,11.7,29.8,3.9,24.5C3.9,35.8,3.9,47.1,3.9,58.4z
			 M5.7,59.6c18.6,0,37,0,55.5,0c-0.2-0.2-0.4-0.3-0.5-0.4c-8.9-6.9-17.9-13.8-26.8-20.8c-0.4-0.3-0.6-0.2-0.9,0
			c-6.9,5.3-13.8,10.7-20.7,16C10.2,56.1,8,57.8,5.7,59.6z M27.3,23.9c0.1,1.8,1.3,3.1,2.9,3.5c1.5,0.4,2.8,0,4-1
			c0.3,0.9,1,1.2,1.9,1.2c1.1,0,2.2-0.2,3.2-0.8c2.4-1.5,3.6-3.6,3.8-6.4c0.3-3.2-1.6-6.4-4.6-7.7c-1.9-0.8-3.9-1-6-0.8
			c-2,0.2-3.9,0.9-5.5,2.2c-3,2.6-4.1,5.9-3.7,9.8c0.3,2.6,1.3,4.8,3.5,6.3c1.4,1,3,1.6,4.8,1.8c2.9,0.4,5.8,0.3,8.5-1.1
			c1.5-0.8,2.7-1.9,3.5-3.5c-0.6,0-1.1,0-1.7,0c-0.4,0-0.7,0.1-0.9,0.4c-0.7,0.8-1.7,1.4-2.7,1.8c-2.2,0.8-4.6,0.8-6.9,0.4
			c-1.9-0.3-3.6-1.1-4.8-2.7c-1.7-2.2-1.8-4.6-1.2-7.1c0.7-3,2.5-5,5.5-5.9c1.4-0.4,2.7-0.4,4.1-0.3c1.5,0,2.8,0.6,3.9,1.5l-0.7,1.1
			c-0.4,0-0.8,0-1.2,0c-1.1,0-1.1,0-1.4,1.1c-0.2-0.3-0.4-0.5-0.6-0.7c-1.4-1.1-3.7-0.9-5.2,0.4C27.9,19,27,21.2,27.3,23.9z"/>
		<path class="st0" d="M39,15.3c1.7,1.4,2.5,3.6,2,6c-0.4,1.7-1.3,3.1-3,4c-0.2,0.1-0.5,0.3-0.8,0.1c-0.2-0.2-0.2-0.4-0.1-0.7
			c0.1-0.4,0.1-0.9,0.2-1.3c0.4-2.2,0.9-4.4,1.4-6.5c0.1-0.4,0-0.4-0.4-0.4L39,15.3z"/>
		<path class="st0" d="M35.1,19.7c0.2,1.7-0.2,3.3-1.2,4.8c-0.5,0.8-1.3,1.2-2.2,1.1c-1.1-0.1-1.7-0.9-1.7-2.2
			c0-1.3,0.1-2.6,0.8-3.8c0.5-0.9,1.3-1.6,2.2-1.6C34.2,18,35,18.7,35.1,19.7z"/>
	</g>
	<g>
	</g>
</g>
</svg>
