<svg xmlns="http://www.w3.org/2000/svg" viewBox="0 0 500 500"><defs><style>.cls-1{fill:#ccc;}</style></defs><title>img2</title><g id="Layer_2" data-name="Layer 2"><g id="Layer_1-2" data-name="Layer 1"><g id="image"><path class="cls-1" d="M442.6,500H57.4A57.53,57.53,0,0,1,0,442.6V57.4A57.53,57.53,0,0,1,57.4,0H442.5A57.55,57.55,0,0,1,500,57.4V442.6A57.53,57.53,0,0,1,442.6,500ZM57.4,20.2A37.26,37.26,0,0,0,20.2,57.4V442.6a37.26,37.26,0,0,0,37.2,37.2H442.5a37.26,37.26,0,0,0,37.2-37.2V57.4a37.26,37.26,0,0,0-37.2-37.2Z"/><path class="cls-1" d="M125.5,219.4a48.25,48.25,0,1,1,48.2-48.2A48.23,48.23,0,0,1,125.5,219.4Zm0-86.4a38.15,38.15,0,1,0,38.1,38.2A38.18,38.18,0,0,0,125.5,133Z"/><path class="cls-1" d="M433.7,364H69.9L190.7,226.7l38.5,39.7,72.4-102.8ZM92.2,353.9H414.9L301.3,181.5,230.4,282.2,191,241.6Z"/></g></g></g></svg>